<?xml version="1.0" encoding="UTF-8"?>
<svg xmlns="http://www.w3.org/2000/svg" xmlns:xlink="http://www.w3.org/1999/xlink" width="299px" height="224px" viewBox="0 0 299 224" version="1.1">
<defs>
<filter id="alpha" filterUnits="objectBoundingBox" x="0%" y="0%" width="100%" height="100%">
  <feColorMatrix type="matrix" in="SourceGraphic" values="0 0 0 0 1 0 0 0 0 1 0 0 0 0 1 0 0 0 1 0"/>
</filter>
<mask id="mask0">
  <g filter="url(#alpha)">
<rect x="0" y="0" width="299" height="224" style="fill:rgb(0%,0%,0%);fill-opacity:0.301961;stroke:none;"/>
  </g>
</mask>
<linearGradient id="linear0" gradientUnits="userSpaceOnUse" x1="338.8984" y1="388.3608" x2="488.8984" y2="388.3608" gradientTransform="matrix(0.598,0,0,0.532067,0,0)">
<stop offset="0" style="stop-color:rgb(32.941176%,32.941176%,75.294118%);stop-opacity:1;"/>
<stop offset="1" style="stop-color:rgb(32.941176%,32.941176%,75.294118%);stop-opacity:0.027451;"/>
</linearGradient>
<clipPath id="clip1">
  <rect x="0" y="0" width="299" height="224"/>
</clipPath>
<g id="surface5" clip-path="url(#clip1)">
<path style=" stroke:none;fill-rule:nonzero;fill:url(#linear0);" d="M 292.359375 206.632812 C 292.359375 203.253906 272.28125 200.515625 247.511719 200.515625 C 222.742188 200.515625 202.660156 203.253906 202.660156 206.632812 C 202.660156 210.011719 222.742188 212.753906 247.511719 212.753906 C 272.28125 212.753906 292.359375 210.011719 292.359375 206.632812 Z M 292.359375 206.632812 "/>
</g>
</defs>
<g id="surface1">
<use xlink:href="#surface5" mask="url(#mask0)"/>
<path style=" stroke:none;fill-rule:nonzero;fill:rgb(25.882353%,84.313725%,100%);fill-opacity:1;" d="M 66.269531 28.40625 L 251.867188 28.40625 L 251.867188 113.566406 L 66.269531 113.566406 Z M 66.269531 28.40625 "/>
<path style=" stroke:none;fill-rule:nonzero;fill:rgb(0%,71.764706%,100%);fill-opacity:1;" d="M 164.847656 48.011719 L 237.246094 48.011719 L 237.246094 94.84375 L 164.847656 94.84375 Z M 164.847656 48.011719 "/>
<path style="fill:none;stroke-width:1;stroke-linecap:butt;stroke-linejoin:miter;stroke:rgb(96.078431%,100%,100%);stroke-opacity:1;stroke-dasharray:4,4;stroke-miterlimit:10;" d="M 164.669994 190.677525 L 284.666336 190.677525 L 284.666336 206.16108 L 164.669994 206.16108 Z M 164.669994 190.677525 " transform="matrix(0.598,0,0,0.532067,0,0)"/>
<path style="fill:none;stroke-width:1;stroke-linecap:butt;stroke-linejoin:miter;stroke:rgb(96.078431%,100%,100%);stroke-opacity:1;stroke-miterlimit:10;" d="M 261.333351 175.333461 L 261.333351 177.337734 L 259.3345 177.337734 " transform="matrix(0.598,0,0,0.532067,0,0)"/>
<path style="fill:none;stroke-width:1;stroke-linecap:butt;stroke-linejoin:miter;stroke:rgb(96.078431%,100%,100%);stroke-opacity:1;stroke-dasharray:3.8509,3.8509;stroke-miterlimit:10;" d="M 255.480508 177.337734 L 188.094429 177.337734 " transform="matrix(0.598,0,0,0.532067,0,0)"/>
<path style="fill:none;stroke-width:1;stroke-linecap:butt;stroke-linejoin:miter;stroke:rgb(96.078431%,100%,100%);stroke-opacity:1;stroke-miterlimit:10;" d="M 186.167433 177.337734 L 184.168583 177.337734 L 184.168583 175.333461 " transform="matrix(0.598,0,0,0.532067,0,0)"/>
<path style="fill:none;stroke-width:1;stroke-linecap:butt;stroke-linejoin:miter;stroke:rgb(96.078431%,100%,100%);stroke-opacity:1;stroke-dasharray:3.6373,3.6373;stroke-miterlimit:10;" d="M 184.168583 171.699341 L 184.168583 137.149501 " transform="matrix(0.598,0,0,0.532067,0,0)"/>
<path style="fill:none;stroke-width:1;stroke-linecap:butt;stroke-linejoin:miter;stroke:rgb(96.078431%,100%,100%);stroke-opacity:1;stroke-miterlimit:10;" d="M 184.168583 135.32877 L 184.168583 133.324498 L 186.167433 133.324498 " transform="matrix(0.598,0,0,0.532067,0,0)"/>
<path style="fill:none;stroke-width:1;stroke-linecap:butt;stroke-linejoin:miter;stroke:rgb(96.078431%,100%,100%);stroke-opacity:1;stroke-dasharray:3.8509,3.8509;stroke-miterlimit:10;" d="M 190.014893 133.324498 L 257.407504 133.324498 " transform="matrix(0.598,0,0,0.532067,0,0)"/>
<path style="fill:none;stroke-width:1;stroke-linecap:butt;stroke-linejoin:miter;stroke:rgb(96.078431%,100%,100%);stroke-opacity:1;stroke-miterlimit:10;" d="M 259.3345 133.324498 L 261.333351 133.324498 L 261.333351 135.32877 " transform="matrix(0.598,0,0,0.532067,0,0)"/>
<path style="fill:none;stroke-width:1;stroke-linecap:butt;stroke-linejoin:miter;stroke:rgb(96.078431%,100%,100%);stroke-opacity:1;stroke-dasharray:3.6373,3.6373;stroke-miterlimit:10;" d="M 261.333351 138.962891 L 261.333351 173.520072 " transform="matrix(0.598,0,0,0.532067,0,0)"/>
<path style=" stroke:none;fill-rule:nonzero;fill:rgb(0%,71.764706%,100%);fill-opacity:1;" d="M 110.417969 55.964844 L 155.992188 55.964844 L 155.992188 57.773438 L 110.417969 57.773438 Z M 110.417969 55.964844 "/>
<path style=" stroke:none;fill-rule:nonzero;fill:rgb(0%,71.764706%,100%);fill-opacity:1;" d="M 110.417969 59.941406 L 155.992188 59.941406 L 155.992188 61.746094 L 110.417969 61.746094 Z M 110.417969 59.941406 "/>
<path style=" stroke:none;fill-rule:nonzero;fill:rgb(0%,71.764706%,100%);fill-opacity:1;" d="M 110.417969 63.917969 L 155.992188 63.917969 L 155.992188 65.722656 L 110.417969 65.722656 Z M 110.417969 63.917969 "/>
<path style=" stroke:none;fill-rule:nonzero;fill:rgb(92.941176%,98.431373%,98.823529%);fill-opacity:1;" d="M 91.128906 33.710938 L 224.894531 33.710938 L 224.894531 39.136719 L 91.128906 39.136719 Z M 91.128906 33.710938 "/>
<path style=" stroke:none;fill-rule:nonzero;fill:rgb(92.941176%,98.431373%,98.823529%);fill-opacity:1;" d="M 228.566406 33.710938 L 246.898438 33.710938 L 246.898438 39.136719 L 228.566406 39.136719 Z M 228.566406 33.710938 "/>
<path style=" stroke:none;fill-rule:nonzero;fill:rgb(92.941176%,98.431373%,98.823529%);fill-opacity:1;" d="M 88.183594 36.421875 C 88.183594 37.476562 87.222656 38.328125 86.039062 38.328125 C 84.855469 38.328125 83.894531 37.476562 83.894531 36.421875 C 83.894531 35.371094 84.855469 34.515625 86.039062 34.515625 C 87.222656 34.515625 88.183594 35.371094 88.183594 36.421875 Z M 88.183594 36.421875 "/>
<path style=" stroke:none;fill-rule:nonzero;fill:rgb(92.941176%,98.431373%,98.823529%);fill-opacity:1;" d="M 82.058594 36.421875 C 82.058594 37.476562 81.097656 38.328125 79.914062 38.328125 C 78.730469 38.328125 77.773438 37.476562 77.773438 36.421875 C 77.773438 35.371094 78.730469 34.515625 79.914062 34.515625 C 81.097656 34.515625 82.058594 35.371094 82.058594 36.421875 Z M 82.058594 36.421875 "/>
<path style=" stroke:none;fill-rule:nonzero;fill:rgb(92.941176%,98.431373%,98.823529%);fill-opacity:1;" d="M 75.933594 36.421875 C 75.933594 37.476562 74.976562 38.328125 73.792969 38.328125 C 72.609375 38.328125 71.648438 37.476562 71.648438 36.421875 C 71.648438 35.371094 72.609375 34.515625 73.792969 34.515625 C 74.976562 34.515625 75.933594 35.371094 75.933594 36.421875 Z M 75.933594 36.421875 "/>
<path style=" stroke:none;fill-rule:nonzero;fill:rgb(86.27451%,89.803922%,89.019608%);fill-opacity:1;" d="M 191.679688 143.375 L 188.238281 143.375 L 187.089844 172.519531 L 188.742188 172.589844 Z M 191.679688 143.375 "/>
<path style=" stroke:none;fill-rule:nonzero;fill:rgb(86.27451%,89.803922%,89.019608%);fill-opacity:1;" d="M 157.503906 171.277344 L 158.511719 173.902344 L 188.742188 173.902344 L 188.742188 172.589844 Z M 157.503906 171.277344 "/>
<path style=" stroke:none;fill-rule:nonzero;fill:rgb(76.078431%,77.647059%,77.254902%);fill-opacity:1;" d="M 188.113281 173.902344 L 198.703125 207.164062 L 197.425781 207.164062 L 185.5625 173.902344 Z M 188.113281 173.902344 "/>
<path style=" stroke:none;fill-rule:nonzero;fill:rgb(76.078431%,77.647059%,77.254902%);fill-opacity:1;" d="M 160.488281 173.902344 L 149.898438 207.164062 L 151.175781 207.164062 L 163.039062 173.902344 Z M 160.488281 173.902344 "/>
<path style=" stroke:none;fill-rule:nonzero;fill:rgb(0%,71.764706%,100%);fill-opacity:1;" d="M 48.539062 55.433594 L 94.683594 55.433594 L 94.683594 78.851562 L 48.539062 78.851562 Z M 48.539062 55.433594 "/>
<path style=" stroke:none;fill-rule:nonzero;fill:rgb(0%,71.764706%,100%);fill-opacity:1;" d="M 120.667969 117.460938 L 192.429688 117.460938 L 192.429688 125.699219 L 120.667969 125.699219 Z M 120.667969 117.460938 "/>
<path style=" stroke:none;fill-rule:nonzero;fill:rgb(97.647059%,80%,85.490196%);fill-opacity:1;" d="M 49.527344 80.199219 C 51.347656 77.550781 48.695312 78.722656 48.695312 78.722656 C 48.695312 78.722656 46.257812 76.121094 45.464844 76.511719 C 44.371094 77.046875 47.375 81.230469 47.375 81.230469 Z M 49.527344 80.199219 "/>
<path style=" stroke:none;fill-rule:nonzero;fill:rgb(15.294118%,14.509804%,14.509804%);fill-opacity:1;" d="M 76.53125 81.160156 C 76.53125 81.160156 75.574219 77.847656 69.992188 77.167969 C 64.113281 76.453125 57.933594 78.851562 60.324219 93.753906 L 68.164062 96.324219 L 68.625 93.011719 L 71.320312 88.609375 Z M 76.53125 81.160156 "/>
<path style=" stroke:none;fill-rule:nonzero;fill:rgb(97.647059%,80%,85.490196%);fill-opacity:1;" d="M 93.382812 80.289062 C 91.753906 77.546875 94.316406 78.863281 94.316406 78.863281 C 94.316406 78.863281 96.933594 76.402344 97.695312 76.835938 C 98.75 77.429688 95.457031 81.4375 95.457031 81.4375 Z M 93.382812 80.289062 "/>
<path style=" stroke:none;fill-rule:nonzero;fill:rgb(91.764706%,74.117647%,43.921569%);fill-opacity:1;" d="M 95.457031 81.4375 L 93.382812 80.289062 L 90.597656 93.03125 L 80.863281 96.871094 L 60.261719 96.726562 L 51.996094 94.167969 L 49.527344 80.199219 L 47.375 81.230469 L 46.359375 96.550781 L 59.328125 104.40625 L 62.964844 123.871094 L 79.132812 123.871094 L 82.328125 103.273438 L 94.808594 97.449219 Z M 95.457031 81.4375 "/>
<path style=" stroke:none;fill-rule:nonzero;fill:rgb(88.627451%,55.294118%,64.705882%);fill-opacity:1;" d="M 62.964844 123.871094 C 62.964844 123.871094 58.339844 126.5625 58.429688 134.011719 C 58.542969 143.457031 60.257812 182.992188 60.257812 182.992188 L 64.328125 182.992188 L 71.0625 132.820312 L 84.941406 141.105469 L 87.984375 168.09375 L 91.460938 168.09375 L 93.914062 138.800781 L 79.132812 123.871094 "/>
<path style=" stroke:none;fill-rule:nonzero;fill:rgb(97.647059%,80%,85.490196%);fill-opacity:1;" d="M 76.910156 96.824219 L 71.777344 103.976562 L 66.644531 96.824219 Z M 76.910156 96.824219 "/>
<path style=" stroke:none;fill-rule:nonzero;fill:rgb(97.647059%,80%,85.490196%);fill-opacity:1;" d="M 68.625 93.011719 L 75.195312 93.011719 L 76.585938 89.621094 L 77.917969 88.949219 L 77.050781 87.523438 L 76.53125 81.160156 L 70.066406 82.761719 L 69.792969 85.832031 L 68.953125 85.972656 C 68.953125 85.972656 67.785156 84.210938 67.007812 84.789062 C 66.199219 85.390625 66.804688 86.429688 67.785156 87.125 C 67.785156 87.125 69.089844 89.699219 68.625 93.011719 Z M 68.625 93.011719 "/>
<path style=" stroke:none;fill-rule:nonzero;fill:rgb(97.647059%,80%,85.490196%);fill-opacity:1;" d="M 69.265625 92.703125 L 73.378906 92.703125 L 73.378906 99.175781 L 69.265625 99.175781 Z M 69.265625 92.703125 "/>
<path style=" stroke:none;fill-rule:nonzero;fill:rgb(88.627451%,55.294118%,64.705882%);fill-opacity:1;" d="M 87.984375 168.09375 L 87.984375 172.6875 L 88.75 172.6875 L 89.292969 170.757812 L 90.648438 172.6875 L 98.242188 172.6875 C 98.242188 172.6875 93.667969 172.046875 91.460938 168.09375 Z M 87.984375 168.09375 "/>
<path style=" stroke:none;fill-rule:nonzero;fill:rgb(88.627451%,55.294118%,64.705882%);fill-opacity:1;" d="M 60.257812 182.992188 L 60.257812 187.585938 L 61.019531 187.585938 L 61.5625 185.65625 L 62.917969 187.585938 L 70.511719 187.585938 C 70.511719 187.585938 65.9375 186.945312 63.730469 182.992188 Z M 60.257812 182.992188 "/>
<path style=" stroke:none;fill-rule:nonzero;fill:rgb(93.72549%,72.54902%,80%);fill-opacity:1;" d="M 69.265625 94.113281 L 73.378906 93.328125 L 73.378906 93.011719 L 69.265625 93.011719 Z M 69.265625 94.113281 "/>
<path style=" stroke:none;fill-rule:nonzero;fill:rgb(15.294118%,14.509804%,14.509804%);fill-opacity:1;" d="M 216.582031 103.976562 L 219.898438 111.472656 L 224.761719 116.191406 L 230.683594 108.722656 L 231.621094 103.167969 L 230.375 103.894531 L 223.679688 98.398438 L 223.808594 100.09375 L 214.5625 98.117188 L 216.648438 100.527344 L 212.375 101.367188 Z M 216.582031 103.976562 "/>
<path style=" stroke:none;fill-rule:nonzero;fill:rgb(97.647059%,80%,85.490196%);fill-opacity:1;" d="M 236.230469 85.703125 C 233.617188 83.679688 236.53125 84.066406 236.53125 84.066406 C 236.53125 84.066406 237.984375 80.90625 238.871094 81.054688 C 240.089844 81.265625 238.613281 86.09375 238.613281 86.09375 Z M 236.230469 85.703125 "/>
<path style=" stroke:none;fill-rule:nonzero;fill:rgb(97.647059%,80%,85.490196%);fill-opacity:1;" d="M 183.28125 126.105469 L 182.089844 127.988281 L 200.730469 136.917969 L 213.886719 130.992188 L 218.460938 149.335938 L 242.136719 147.914062 L 239.140625 122.53125 L 238.613281 86.09375 L 236.230469 85.703125 L 229.222656 117.667969 L 211.417969 122.292969 L 200.546875 130.992188 Z M 183.28125 126.105469 "/>
<path style=" stroke:none;fill-rule:nonzero;fill:rgb(97.647059%,80%,85.490196%);fill-opacity:1;" d="M 223.851562 118.320312 L 214.757812 116.347656 L 215.152344 111.832031 L 213.449219 111.464844 L 216.582031 103.976562 L 223.851562 107.730469 L 222.914062 110.699219 L 223.933594 110.921875 C 223.933594 110.921875 225.207031 108.839844 226.179688 109.8125 C 226.816406 110.449219 226.191406 112.367188 225.046875 112.839844 L 224.761719 116.195312 Z M 223.851562 118.320312 "/>
<path style=" stroke:none;fill-rule:nonzero;fill:rgb(97.647059%,80%,85.490196%);fill-opacity:1;" d="M 218.308594 116.765625 L 223.140625 115.726562 L 224.738281 121.613281 L 219.90625 122.648438 Z M 218.308594 116.765625 "/>
<path style=" stroke:none;fill-rule:nonzero;fill:rgb(70.980392%,87.843137%,88.627451%);fill-opacity:1;" d="M 219.609375 204.707031 L 219.640625 206.484375 L 208.667969 206.632812 C 211.65625 204.140625 216.070312 204.128906 216.070312 204.128906 Z M 219.609375 204.707031 "/>
<path style=" stroke:none;fill-rule:nonzero;fill:rgb(70.980392%,87.843137%,88.627451%);fill-opacity:1;" d="M 250.871094 204.316406 L 250.902344 206.09375 L 239.929688 206.242188 C 242.917969 203.75 247.332031 203.738281 247.332031 203.738281 Z M 250.871094 204.316406 "/>
<path style=" stroke:none;fill-rule:nonzero;fill:rgb(20.784314%,20.784314%,64.705882%);fill-opacity:1;" d="M 205.800781 126.789062 L 209.914062 132.488281 L 213.886719 130.992188 L 218.460938 149.335938 L 242.136719 147.914062 L 239.140625 122.53125 L 239.003906 113.070312 L 230.632812 111.226562 L 229.222656 117.667969 L 211.417969 122.292969 Z M 205.800781 126.789062 "/>
<path style=" stroke:none;fill-rule:nonzero;fill:rgb(93.72549%,72.54902%,80%);fill-opacity:1;" d="M 223.917969 118.558594 L 218.671875 118.050781 L 218.425781 117.140625 L 223.851562 118.320312 Z M 223.917969 118.558594 "/>
<path style=" stroke:none;fill-rule:nonzero;fill:rgb(70.980392%,87.843137%,88.627451%);fill-opacity:1;" d="M 216.070312 204.128906 L 219.609375 204.707031 L 230.523438 154.734375 L 247.332031 203.738281 L 250.871094 204.316406 L 242.136719 147.914062 L 218.460938 149.335938 Z M 216.070312 204.128906 "/>
<path style=" stroke:none;fill-rule:nonzero;fill:rgb(25.882353%,84.313725%,100%);fill-opacity:1;" d="M 49.949219 206.726562 L 49.949219 187.195312 L 76.910156 187.195312 L 76.910156 172.6875 L 102.683594 172.6875 L 102.683594 160.4375 L 132.230469 160.4375 L 132.230469 206.726562 Z M 49.949219 206.726562 "/>
<path style=" stroke:none;fill-rule:nonzero;fill:rgb(97.647059%,80%,85.490196%);fill-opacity:1;" d="M 183.28125 126.105469 C 183.207031 123.027344 181.675781 125.261719 181.675781 125.261719 C 181.675781 125.261719 178.015625 124.234375 177.578125 124.9375 C 176.976562 125.902344 182.089844 127.988281 182.089844 127.988281 Z M 183.28125 126.105469 "/>
</g>
</svg>
